<svg width="806" height="82" viewBox="0 0 806 82" fill="none" xmlns="http://www.w3.org/2000/svg">
<path d="M28.7809 80.6275L0 1.37253H22.3625L41.1763 58.5262L60.0919 1.37253H82.4544L53.5546 80.6451H28.7809V80.6275Z" fill="#FFF7E9"/>
<path d="M93.7969 80.6275V1.37253H113.528V80.6451H93.7969V80.6275Z" fill="#FFF7E9"/>
<path d="M185.879 80.6275L181.974 68.6266H150.205L146.299 80.6275H124.854L153.651 1.37253H178.425L207.325 80.6451H185.879V80.6275ZM166.047 19.1979L155.383 51.3996H176.829L166.047 19.1979Z" fill="#FFF7E9"/>
<path d="M287.86 80.5747L243.254 17.3502V80.5747H233.729V1.30215H243.475L287.504 63.2245V1.30215H297.03V80.5747H287.86Z" fill="#FFF7E9"/>
<path d="M375.237 80.5747L368.462 62.9781H330.393L323.635 80.5747H312.734L343.468 1.30215H355.286L386.138 80.5747H375.237ZM349.428 11.5258L333.144 54.1974H365.593L349.428 11.5258Z" fill="#FFF7E9"/>
<path d="M413.071 80.5747V10.1004H388.875V1.30215H446.895V10.1004H422.58V80.5747H413.054H413.071Z" fill="#FFF7E9"/>
<path d="M465.232 80.5747V1.30215H474.758V80.5747H465.232Z" fill="#FFF7E9"/>
<path d="M495.287 41C495.287 17.5966 510.535 0 533.237 0C555.939 0 571.187 17.5966 571.187 41C571.187 64.4034 555.82 82 533.237 82C510.654 82 495.287 64.4034 495.287 41ZM561.339 41C561.339 22.4532 550.336 8.79828 533.237 8.79828C516.138 8.79828 505.135 22.4708 505.135 41C505.135 59.5292 516.037 73.2017 533.237 73.2017C550.438 73.2017 561.339 59.4236 561.339 41Z" fill="#FFF7E9"/>
<path d="M645.948 80.5747L601.342 17.3502V80.5747H591.816V1.30215H601.563L645.592 63.2245V1.30215H655.117V80.5747H645.948Z" fill="#FFF7E9"/>
<path d="M733.327 80.5747L726.552 62.9781H688.483L681.725 80.5747H670.824L701.558 1.30215H713.376L744.228 80.5747H733.327ZM707.535 11.5258L691.251 54.1974H723.7L707.535 11.5258Z" fill="#FFF7E9"/>
<path d="M759.936 80.5747V1.30215H769.461V71.7764H805.017V80.5747H759.953H759.936Z" fill="#FFF7E9"/>
</svg>
